<svg xmlns="http://www.w3.org/2000/svg" viewBox="0 0 64 64">
	<path transform="scale(2, 2)  translate(-32, -28)" d="M41.69,46.56A1.87,1.87,0,0,0,43,47c1.17,0,1.76-.52,1.76-1.56V39.57a.66.66,0,0,1,.12-.45.64.64,0,0,1,.44-.12h1.12a.46.46,0,0,1,.57.57v5.77A3.5,3.5,0,0,1,46,48a4.17,4.17,0,0,1-3,1,4.14,4.14,0,0,1-3-1,3.5,3.5,0,0,1-1-2.68V39.57a.46.46,0,0,1,.57-.57h1.12a.6.6,0,0,1,.43.12.66.66,0,0,1,.12.45V45.4A1.47,1.47,0,0,0,41.69,46.56Z" fill="#e5e7eb"/>
	<path transform="scale(2, 2)  translate(-32, -28)" d="M57.44,39.56l-3.17,9a.72.72,0,0,1-.25.38.81.81,0,0,1-.45.1H52.44a.89.89,0,0,1-.45-.09.63.63,0,0,1-.24-.36l-3.19-9c-.14-.37,0-.56.37-.56h1a1.6,1.6,0,0,1,.73.11.67.67,0,0,1,.3.41l1.63,5.25c.06.23.13.48.19.77s.1.5.13.67l0,.25h.11a9.3,9.3,0,0,1,.35-1.67l1.6-5.27a.61.61,0,0,1,.3-.41,1.51,1.51,0,0,1,.71-.11h1C57.46,39,57.58,39.19,57.44,39.56Z" fill="#e5e7eb"/>
</svg>
